<?xml version="1.0" encoding="utf-8"?>
<!-- Generator: Adobe Illustrator 24.2.3, SVG Export Plug-In . SVG Version: 6.00 Build 0)  -->
<svg version="1.1" id="Ilustrasi_2" xmlns="http://www.w3.org/2000/svg" xmlns:xlink="http://www.w3.org/1999/xlink" x="0px"
	 y="0px" viewBox="0 0 1043 1017" style="enable-background:new 0 0 1043 1017;" xml:space="preserve">
<style type="text/css">
	.st0{fill-rule:evenodd;clip-rule:evenodd;fill:#D17497;}
	.st1{fill-rule:evenodd;clip-rule:evenodd;fill:#C26688;}
	.st2{fill-rule:evenodd;clip-rule:evenodd;fill:#FEFEFE;}
	.st3{fill-rule:evenodd;clip-rule:evenodd;fill:#81BED8;}
	.st4{fill-rule:evenodd;clip-rule:evenodd;fill:#231915;}
</style>
<g>
	<path class="st0" d="M513.02,196.59c60.08,0.57,116.48,16.96,165.11,45.09c0.85-1.84,1.55-3.67,2.26-5.65
		c4.8-13.99,8.91-35.34,19.93-50.04c11.03-14.84,28.98-23.18,41.42-19.79c12.58,3.25,19.51,18.09,12.72,30.96
		c-6.79,13-27.28,23.89-41.56,33.92c-9.05,6.5-15.55,12.58-21.35,18.66c33.08,21.2,62.2,48.06,85.95,79.02
		c7.63-11.45,26.86-32.52,38.31-55.42c12.01-24.31,14.98-50.47,25.73-66.01c10.74-15.55,29.12-20.36,41.98-14.7
		c13,5.65,20.36,21.91,20.78,35.62c0.56,13.85-6.08,25.16-17.67,33.36c-11.59,8.06-28.27,12.86-42.27,19.22
		c-13.99,6.36-25.3,14.13-34.63,24.31c-9.33,10.18-16.54,22.76-24.17,29.26c-0.85,0.71-1.55,1.27-2.4,1.84
		c40,55.27,63.61,123.13,63.9,196.64c5.51-0.71,11.17-1.56,16.68-2.69c25.3-5.51,47.64-18.52,69.69-23.18
		c22.2-4.52,43.97-0.71,59.38,10.88c15.26,11.73,24.03,30.96,24.45,48.49c0.42,17.39-7.49,33.22-21.2,41.28
		c-13.85,8.06-33.5,8.48-50.32,2.69c-16.82-5.94-30.82-18.24-47.07-26.58c-16.26-8.2-34.64-12.72-53.29-15.55l0,0
		c-6.64,65.73-32.09,125.81-70.82,174.72c1.27,1.13,2.69,2.12,4.1,3.25c13.85,9.61,35.2,18.09,57.25,24.73
		c22.05,6.79,44.81,11.6,60.79,24.03c15.97,12.44,25.16,32.65,19.79,53.57c-5.51,21.06-25.59,42.97-46.51,49.05
		c-20.78,6.08-42.13-3.53-53.58-20.64c-11.31-16.96-12.72-41.56-26.86-69.13c-8.06-15.54-20.21-32.09-30.68-46.36
		c-35.9,39.3-81,69.97-131.75,88.92c7.5,9.33,10.74,17.24,14.14,29.96c4.1,14.56,8.48,35.63-0.28,46.79
		c-8.77,11.17-30.68,12.44-45.8,7.63c-14.98-4.8-23.32-15.69-25.16-31.52c-1.13-10.75,0.71-23.75,0.99-37.46
		c-19.93,3.54-40.29,5.51-61.35,5.51c-22.62,0-44.81-2.26-66.16-6.5c1.27,7.92,2.83,17.25,5.51,24.88
		c5.09,14.42,13.85,23.6,11.73,33.08c-2.26,9.33-15.41,19.09-26.29,17.96c-11.03-1.13-19.79-12.87-21.49-24.46
		c-1.7-11.73,3.53-23.04,7.49-33.5c2.83-7.78,5.09-15.13,7.35-21.49c-48.06-12.01-92.17-34.35-129.49-64.46
		c-5.94,11.59-7.63,24.74-10.32,39.02c-2.83,14.99-6.78,31.1-18.09,39.02c-11.45,7.92-30.25,7.49-43.82,1.13
		c-13.57-6.36-21.77-18.66-23.75-30.96c-1.98-12.16,2.4-24.45,16.26-35.2c13.85-10.88,37.18-20.22,55.55-32.94l0.85-0.71
		c-21.77-21.06-40.71-45.09-56.26-71.38c-5.8,11.45-9.19,25.87-15.69,35.9c-6.64,10.32-16.68,15.98-27,14.84
		c-10.32-0.99-20.78-8.91-23.61-20.08c-2.83-11.17,1.98-25.58,11.87-35.9c9.9-10.32,24.74-16.4,37.04-23.89l1.7-0.99
		c-17.95-38.87-28.56-81.85-30.39-126.94c-6.22,2.4-12.44,5.51-18.66,9.9c-11.45,7.77-22.76,19.65-36.33,29.68
		c-13.57,10.04-29.41,18.38-43.12,15.83c-13.85-2.69-25.58-16.26-27.14-31.52c-1.56-15.41,7.21-32.37,18.8-42.13
		c11.59-9.61,26.01-11.73,46.79-12.16c18.94-0.43,42.97,0.57,59.65,1.13c1.98-41.98,11.45-81.99,27.42-118.6
		c-2.4-0.71-4.81-1.41-7.35-1.84c-11.17-1.98-25.59-0.56-43.11-0.14c-17.53,0.42-38.17,0-51.03-5.94
		c-12.86-5.94-18.09-17.24-16.4-31.1c1.7-13.71,10.46-29.97,23.47-38.45c12.86-8.62,29.97-9.47,43.96-2.26
		c13.99,7.21,24.88,22.62,39.72,35.91c7.21,6.5,15.41,12.44,23.18,18.09c15.97-29.54,36.19-56.4,59.79-79.87
		c-6.08-8.34-13.29-21.34-26.86-34.21c-20.36-19.23-54.85-38.17-81.28-56.69c-26.43-18.38-44.67-36.19-43.68-56.83
		c1.13-20.78,21.49-44.24,39.58-49.76c18.09-5.51,34.07,6.92,44.81,26.58c10.75,19.65,16.4,46.37,27.43,68.28
		c11.03,21.91,27.28,39.01,41.56,49.62c14.14,10.6,26.15,14.7,32.79,20.64c0.57,0.57,0.99,0.99,1.56,1.55
		c10.32-7.77,21.06-14.98,32.37-21.49c-6.36-7.77-12.86-15.55-18.38-22.9c-14.84-19.79-23.89-37.04-18.24-51.88
		c5.65-14.84,26.15-27.14,40.71-26.86c14.56,0.28,23.04,13.15,26.29,30.11c3.11,16.26,1.13,36.33,3.39,54.42
		c34.63-15.27,72.24-24.74,111.82-27.42c-0.28-2.26-0.57-4.52-1.13-6.79c-4.1-21.06-17.25-48.2-25.59-71.53
		c-8.34-23.18-11.88-42.55-1.98-54.99c9.75-12.44,32.94-18.09,46.79-13.57c13.71,4.66,18.09,19.51,16.11,36.61
		c-1.98,17.1-10.18,36.33-13.15,54.85c-2.83,18.66-0.14,36.61,3.96,49.48C511.75,193.34,512.45,195.04,513.02,196.59L513.02,196.59z
		"/>
	<path class="st1" d="M838.29,457.26c5.66,24.31,8.63,49.62,8.77,75.63c5.51-0.71,11.17-1.56,16.68-2.69
		c25.3-5.51,47.64-18.52,69.69-23.18c22.2-4.52,43.97-0.71,59.38,10.88c15.26,11.73,24.03,30.96,24.45,48.49
		c0.42,17.39-7.49,33.22-21.2,41.28c-13.85,8.06-33.5,8.48-50.32,2.69c-16.82-5.94-30.82-18.24-47.07-26.58
		c-16.26-8.2-34.64-12.72-53.29-15.55l0,0c-6.64,65.73-32.09,125.81-70.82,174.72c1.27,1.13,2.69,2.12,4.1,3.25
		c13.85,9.61,35.2,18.09,57.25,24.73c22.05,6.79,44.81,11.6,60.79,24.03c15.97,12.44,25.16,32.65,19.79,53.57
		c-5.51,21.06-25.59,42.97-46.51,49.05c-20.78,6.08-42.13-3.53-53.58-20.64c-11.31-16.96-12.72-41.56-26.86-69.13
		c-8.06-15.54-20.21-32.09-30.68-46.36c-35.9,39.3-81,69.97-131.75,88.92c7.5,9.33,10.74,17.24,14.14,29.96
		c4.1,14.56,8.48,35.63-0.28,46.79c-8.77,11.17-30.68,12.44-45.8,7.63c-14.98-4.8-23.32-15.69-25.16-31.52
		c-1.13-10.75,0.71-23.75,0.99-37.46c-19.93,3.54-40.29,5.51-61.35,5.51c-22.62,0-44.81-2.26-66.16-6.5
		c1.27,7.92,2.83,17.25,5.51,24.88c5.09,14.42,13.85,23.6,11.73,33.08c-2.26,9.33-15.41,19.09-26.29,17.96
		c-11.03-1.13-19.79-12.87-21.49-24.46c-1.7-11.73,3.53-23.04,7.49-33.5c2.83-7.78,5.09-15.13,7.35-21.49
		c-48.06-12.01-92.17-34.35-129.49-64.46c-5.94,11.59-7.63,24.74-10.32,39.02c-2.83,14.99-6.78,31.1-18.09,39.02
		c-11.45,7.92-30.25,7.49-43.82,1.13c-13.57-6.36-21.77-18.66-23.75-30.96c-1.98-12.16,2.4-24.45,16.26-35.2
		c13.85-10.88,37.18-20.22,55.55-32.94l0.85-0.71c-21.77-21.06-40.71-45.09-56.26-71.38c-5.8,11.45-9.19,25.87-15.69,35.9
		c-6.64,10.32-16.68,15.98-27,14.84c-10.32-0.99-20.78-8.91-23.61-20.08c-2.83-11.17,1.98-25.58,11.87-35.9
		c9.9-10.32,24.74-16.4,37.04-23.89l1.7-0.99c-17.95-38.87-28.56-81.85-30.39-126.94c-6.22,2.4-12.44,5.51-18.66,9.9
		c-11.45,7.77-22.76,19.65-36.33,29.68c-13.57,10.04-29.41,18.38-43.12,15.83c-13.85-2.69-25.58-16.26-27.14-31.52
		c-1.56-15.41,7.21-32.37,18.8-42.13c11.59-9.61,26.01-11.73,46.79-12.16c18.94-0.43,42.97,0.57,59.65,1.13
		c0.85-16.96,2.83-33.5,5.94-49.62c12.16,0.99,22.9,2.83,33.93,10.46c18.37,12.58,37.74,41.56,49.47,77.47
		c11.88,35.76,16.26,78.74,27.57,111.96c11.45,33.22,29.83,56.83,54.28,76.19c24.46,19.22,55.13,34.07,89.76,42.41
		c34.49,8.34,73.08,10.03,108.42,0c35.48-10.04,67.85-31.95,86.66-55.98c18.8-24.17,24.03-50.32,31.52-68.7
		c7.49-18.38,17.11-28.98,29.26-35.48c12.3-6.5,27.14-9.19,43.4-17.53c16.12-8.34,33.64-22.34,34.07-35.06
		c0.42-12.58-16.12-24.03-31.38-34.07c-15.41-10.04-29.41-18.8-22.76-23.61c6.5-4.8,33.64-5.65,55.13-13.99
		c21.35-8.34,37.18-24.03,57.25-37.6C829.24,462.49,833.63,459.81,838.29,457.26L838.29,457.26z"/>
	<path class="st1" d="M337.02,344.88c12.72,0,22.9,10.32,22.9,23.04c0,12.72-10.18,22.9-22.9,22.9c-12.72,0-23.04-10.18-23.04-22.9
		C313.98,355.2,324.3,344.88,337.02,344.88L337.02,344.88z"/>
	<path class="st1" d="M361.9,463.06c25.02,0,45.38,20.21,45.38,45.24c0,25.02-20.35,45.37-45.38,45.37
		c-25.02,0-45.24-20.35-45.24-45.37C316.67,483.27,336.88,463.06,361.9,463.06L361.9,463.06z"/>
	<path class="st1" d="M686.19,368.49c14.14,0,25.58,11.45,25.58,25.59c0,14.28-11.45,25.73-25.58,25.73
		c-14.13,0-25.59-11.45-25.59-25.73C660.6,379.94,672.05,368.49,686.19,368.49L686.19,368.49z"/>
	<path class="st1" d="M646.89,506.46c14.84,0,26.86,12.01,26.86,26.86c0,14.84-12.01,26.86-26.86,26.86c-14.98,0-27-12.02-27-26.86
		C619.89,518.47,631.9,506.46,646.89,506.46L646.89,506.46z"/>
	<path class="st1" d="M526.73,636.37c24.6,0,44.67,19.93,44.67,44.67c0,24.6-20.07,44.53-44.67,44.53
		c-24.6,0-44.67-19.93-44.67-44.53C482.06,656.3,502.13,636.37,526.73,636.37L526.73,636.37z"/>
	<path class="st1" d="M591.76,215.96c-1.56,10.75-1.13,27.28-4.81,40.15c-3.53,12.86-11.17,22.33-16.96,30.68
		c-5.65,8.2-9.33,15.41-5.09,18.8c4.24,3.39,16.54,2.97,27.14-4.1c10.6-7.07,19.51-20.92,25.59-30.53
		c6.08-9.61,9.05-15.13,14.13-18.8c4.95-3.67,11.88-5.65,17.39-8.48c5.37-2.83,9.47-6.65,8.48-15.12
		c-1.13-8.48-7.21-21.49-17.67-27.99c-10.46-6.36-25.02-6.22-34.21-3.39C596.71,199.84,593.17,205.07,591.76,215.96L591.76,215.96z"
		/>
	<path class="st0" d="M629.78,170.3c22.05,0,40,17.95,40,40c0,22.2-17.95,40.15-40,40.15c-22.19,0-40.01-17.95-40.01-40.15
		C589.78,188.25,607.59,170.3,629.78,170.3L629.78,170.3z"/>
	<path class="st1" d="M383.81,772.5c2.12-10.75,2.69-27.14,6.93-39.87c4.38-12.72,12.58-21.63,18.8-29.54
		c6.08-8.06,10.18-14.98,6.22-18.66c-4.1-3.67-16.4-3.82-27.42,2.55c-10.88,6.5-20.64,19.79-27.28,29.12
		c-6.5,9.19-9.9,14.42-15.13,17.95c-5.23,3.39-12.16,4.95-17.81,7.49c-5.65,2.54-9.89,6.08-9.33,14.56
		c0.56,8.48,5.94,21.91,15.97,28.84c10.04,7.07,24.6,7.78,33.78,5.51C377.88,788.19,381.7,783.24,383.81,772.5L383.81,772.5z"/>
	<path class="st0" d="M343.1,815.76c-22.05-1.27-38.88-20.21-37.6-42.27c1.27-22.05,20.21-38.87,42.27-37.6
		c22.05,1.27,38.88,20.21,37.6,42.27C384.1,800.21,365.15,817.03,343.1,815.76L343.1,815.76z"/>
	<path class="st1" d="M516.84,332.72c12.16,0,22.05,9.89,22.05,22.05s-9.89,22.05-22.05,22.05c-12.16,0-22.05-9.9-22.05-22.05
		S504.68,332.72,516.84,332.72L516.84,332.72z"/>
	<path class="st2" d="M699.19,398.88c21.06,0,38.17,30.54,38.17,68.14c0,37.6-17.1,68.14-38.17,68.14s-38.03-30.54-38.03-68.14
		C661.17,429.42,678.13,398.88,699.19,398.88L699.19,398.88z"/>
	<path class="st2" d="M528.57,378.67c24.88,0,45.09,36.05,45.09,80.58c0,44.39-20.21,80.43-45.09,80.43
		c-24.88,0-44.95-36.05-44.95-80.43C483.62,414.71,503.69,378.67,528.57,378.67L528.57,378.67z"/>
	<path class="st3" d="M710.64,453.02c12.86,0,23.18,14.7,23.18,32.8c0,18.09-10.32,32.8-23.18,32.8c-12.72,0-23.18-14.7-23.18-32.8
		C687.46,467.72,697.92,453.02,710.64,453.02L710.64,453.02z"/>
	<path class="st3" d="M541.15,457.83c12.58,0,22.9,14.42,22.9,32.23c0,17.81-10.32,32.23-22.9,32.23
		c-12.58,0-22.76-14.42-22.76-32.23C518.39,472.25,528.57,457.83,541.15,457.83L541.15,457.83z"/>
	<path class="st4" d="M542.28,461.93c10.32,0,18.8,11.87,18.8,26.58c0,14.84-8.48,26.72-18.8,26.72c-10.46,0-18.8-11.87-18.8-26.72
		C523.48,473.8,531.82,461.93,542.28,461.93L542.28,461.93z"/>
	<path class="st4" d="M712.2,458.54c11.03,0,19.93,12.58,19.93,28.13s-8.9,28.13-19.93,28.13c-11.03,0-19.93-12.58-19.93-28.13
		S701.17,458.54,712.2,458.54L712.2,458.54z"/>
	<path class="st1" d="M553.73,630.01c11.31-6.5,28.27-14,50.18-15.27c21.77-1.13,48.49,4.1,65.87,12.72
		c17.39,8.63,25.44,20.64,26.58,24.03c1.27,3.53-4.1-1.56-14.28-7.49c-10.32-5.94-25.16-13-42.69-16.26
		c-17.39-3.39-37.46-3.25-55.98,0.57c-18.52,3.82-35.48,11.17-41.14,12.3C536.63,641.6,542.28,636.37,553.73,630.01L553.73,630.01z"
		/>
	<path class="st4" d="M557.12,624.92c11.45-6.5,28.41-14.14,50.18-15.27c21.91-1.13,48.63,4.1,66.02,12.72
		c17.39,8.63,25.3,20.64,26.58,24.03c1.27,3.53-4.24-1.56-14.42-7.49c-10.18-6.08-25.16-13.01-42.55-16.26
		c-17.53-3.39-37.46-3.25-55.98,0.57c-18.52,3.82-35.62,11.17-41.28,12.16C540.16,636.51,545.82,631.28,557.12,624.92L557.12,624.92
		z"/>
	<path class="st2" d="M549.49,462.78c5.37,0,9.61,4.38,9.61,9.61c0,5.37-4.24,9.61-9.61,9.61c-5.23,0-9.61-4.24-9.61-9.61
		C539.88,467.16,544.26,462.78,549.49,462.78L549.49,462.78z"/>
	<path class="st2" d="M718.84,458.96c5.23,0,9.61,4.24,9.61,9.61c0,5.23-4.38,9.47-9.61,9.47c-5.37,0-9.61-4.24-9.61-9.47
		C709.23,463.2,713.47,458.96,718.84,458.96L718.84,458.96z"/>
	<path class="st4" d="M660.04,412.31c16.82-8.91,48.49-24.74,64.18-31.1c15.83-6.5,15.83-3.53,15.13-0.71
		c-0.85,2.97-2.4,5.79-4.95,7.92c-2.54,2.26-5.94,3.68-23.61,11.17c-17.53,7.49-49.05,21.06-63.47,26.43
		c-14.28,5.37-11.31,2.54-8.76,0C641.09,423.62,643.07,421.36,660.04,412.31L660.04,412.31z"/>
	<path class="st4" d="M506.66,361.85c17.81,7.92,51.31,25.02,67.57,33.36c16.11,8.48,14.98,8.06-0.28,2.97
		c-15.27-5.09-44.53-14.7-62.06-20.78c-17.53-6.08-23.33-8.48-27.14-10.74c-3.96-2.12-5.94-3.96-5.79-5.65
		c0.28-1.56,2.69-2.83,5.09-4.24C486.44,355.49,488.7,353.93,506.66,361.85L506.66,361.85z"/>
</g>
</svg>
