<?xml version="1.0" encoding="utf-8"?>
<!-- Generator: Adobe Illustrator 24.2.3, SVG Export Plug-In . SVG Version: 6.00 Build 0)  -->
<svg version="1.1" id="Ilustrasi_2" xmlns="http://www.w3.org/2000/svg" xmlns:xlink="http://www.w3.org/1999/xlink" x="0px"
	 y="0px" viewBox="0 0 1043 1017" style="enable-background:new 0 0 1043 1017;" xml:space="preserve">
<style type="text/css">
	.st0{fill-rule:evenodd;clip-rule:evenodd;fill:#0074AF;}
	.st1{fill-rule:evenodd;clip-rule:evenodd;fill:#005784;}
	.st2{fill-rule:evenodd;clip-rule:evenodd;fill:#005485;}
	.st3{fill-rule:evenodd;clip-rule:evenodd;fill:#5B9F33;}
	.st4{fill-rule:evenodd;clip-rule:evenodd;fill:#79BD3F;}
	.st5{fill-rule:evenodd;clip-rule:evenodd;fill:#FEFEFE;}
	.st6{fill-rule:evenodd;clip-rule:evenodd;fill:#81BED8;}
	.st7{fill-rule:evenodd;clip-rule:evenodd;fill:#231915;}
	.st8{fill-rule:evenodd;clip-rule:evenodd;}
</style>
<g>
	<path class="st0" d="M520.02,39.38c257.56,0,466.35,208.79,466.35,466.35c0,257.56-208.79,466.35-466.35,466.35
		S53.53,763.29,53.53,505.73C53.53,248.17,262.46,39.38,520.02,39.38L520.02,39.38z"/>
	<path class="st1" d="M937.04,714.66c-76.62,152.67-234.52,257.42-417.02,257.42c-257.56,0-466.49-208.79-466.49-466.35
		c0-150.12,71.1-283.71,181.23-369.09c-31.52,62.91-49.33,133.87-49.33,208.93c0,257.56,208.79,466.35,466.49,466.35
		C759.34,811.92,858.16,775.59,937.04,714.66L937.04,714.66z"/>
	<path class="st2" d="M808.96,165.62c103.2,85.52,169.07,214.73,169.07,359.34c0,33.22-3.54,65.59-10.18,96.83
		c-10.74-2.4-17.81-5.37-20.22-9.47c-2.69-4.67,0.57-10.74,0.99-16.54c0.28-5.65-2.12-11.03-5.37-15.69
		c-3.25-4.8-7.35-8.9-11.31-8.62c-3.82,0.14-7.49,4.66-15.55,8.77c-8.06,4.1-20.36,7.77-28.13,7.07
		c-7.78-0.85-11.03-6.22-16.12-11.17c-5.09-4.95-12.16-9.33-21.92-11.59c-9.9-2.27-22.62-2.27-28.13-3.82
		c-5.51-1.41-3.82-4.24,0.85-8.77c4.67-4.53,12.44-10.6,20.64-15.41c8.2-4.66,16.82-7.91,20.92-11.87c4.1-3.82,3.68-8.34,3.11-14.28
		c-0.57-5.94-1.42-13.29,1.41-19.51c2.83-6.08,9.47-11.03,12.16-14.56c2.55-3.39,1.42-5.51-1.13-7.78c-2.4-2.26-6.08-4.67-6.64-8.34
		c-0.71-3.68,1.84-8.63,4.24-16.26c2.4-7.5,4.95-17.81,5.8-27c0.71-9.19,0-17.39-3.11-26.43c-3.11-9.05-8.48-18.95-12.72-26.72
		c-4.24-7.78-7.64-13.43-11.45-20.92c-3.96-7.35-8.48-16.26-9.19-24.74c-0.85-8.34,1.98-16.12,3.25-21.91
		c1.13-5.8,0.85-9.47-5.23-18.8c-5.94-9.47-17.39-24.6-20.78-35.9c-3.54-11.31,0.99-18.66,2.82-23.04c1.84-4.24,0.99-5.51-2.41-9.19
		c-3.53-3.67-9.75-9.75-16.11-15.12c-6.22-5.37-12.87-9.9-12.02-15.41C797.23,174.38,802.46,169.29,808.96,165.62L808.96,165.62z"/>
	<path class="st3" d="M816.31,156c103.33,85.52,169.07,214.73,169.07,359.2c0,33.36-3.54,65.73-10.04,96.98
		c-10.88-2.55-17.95-5.38-20.36-9.47c-2.68-4.67,0.56-10.74,0.99-16.54c0.43-5.8-2.12-11.03-5.37-15.83
		c-3.25-4.67-7.35-8.77-11.31-8.63c-3.81,0.28-7.49,4.81-15.55,8.91c-7.91,4.1-20.21,7.77-27.99,6.92
		c-7.91-0.85-11.17-6.08-16.26-11.03c-5.09-4.95-12.01-9.47-21.91-11.73c-9.9-2.26-22.62-2.26-28.13-3.68
		c-5.52-1.41-3.82-4.24,0.85-8.77c4.67-4.52,12.58-10.74,20.78-15.41c8.2-4.66,16.68-8.05,20.79-11.87
		c4.1-3.96,3.67-8.48,3.11-14.42c-0.57-5.94-1.41-13.29,1.41-19.36c2.97-6.22,9.47-11.17,12.16-14.56c2.68-3.54,1.41-5.51-0.99-7.78
		c-2.55-2.26-6.22-4.8-6.79-8.48c-0.71-3.68,1.84-8.63,4.24-16.12c2.55-7.64,4.95-17.81,5.79-27.14c0.85-9.19,0-17.39-3.11-26.44
		c-3.11-8.91-8.34-18.8-12.72-26.58c-4.24-7.78-7.49-13.57-11.45-20.92c-3.96-7.35-8.34-16.4-9.19-24.74
		c-0.85-8.48,1.98-16.26,3.25-22.05c1.27-5.65,0.85-9.33-5.09-18.8c-5.94-9.47-17.53-24.6-20.92-35.91
		c-3.54-11.17,0.99-18.66,2.83-22.9c1.84-4.24,0.99-5.51-2.4-9.19c-3.54-3.67-9.61-9.9-15.97-15.27c-6.36-5.23-13-9.75-12.16-15.27
		C804.58,164.77,809.81,159.68,816.31,156L816.31,156z"/>
	<path class="st4" d="M817.3,146.39c103.34,85.52,169.07,214.73,169.07,359.34c0,33.22-3.53,65.59-10.04,96.84
		c-10.88-2.41-17.95-5.37-20.36-9.47c-2.68-4.67,0.56-10.74,0.99-16.54c0.42-5.65-2.12-11.03-5.37-15.69
		c-3.25-4.81-7.35-8.91-11.31-8.63c-3.81,0.14-7.49,4.67-15.54,8.77c-7.92,4.1-20.22,7.77-27.99,6.92
		c-7.91-0.7-11.17-6.08-16.26-11.03c-5.09-4.95-12.16-9.47-21.91-11.73c-9.9-2.26-22.62-2.26-28.13-3.68
		c-5.51-1.41-3.82-4.24,0.85-8.77c4.67-4.52,12.58-10.6,20.64-15.4c8.2-4.67,16.82-7.92,20.92-11.88c4.1-3.81,3.67-8.34,3.11-14.27
		c-0.57-5.94-1.41-13.43,1.42-19.51c2.97-6.22,9.47-11.03,12.16-14.56c2.68-3.53,1.41-5.51-0.99-7.77
		c-2.55-2.26-6.22-4.67-6.79-8.34c-0.71-3.82,1.84-8.62,4.24-16.26c2.55-7.63,4.95-17.81,5.79-27c0.85-9.33,0-17.53-3.11-26.44
		c-3.11-9.05-8.34-18.94-12.73-26.72c-4.24-7.78-7.63-13.57-11.45-20.92c-3.96-7.35-8.48-16.4-9.19-24.74
		c-0.85-8.48,1.98-16.26,3.25-21.91c1.27-5.8,0.85-9.47-5.09-18.94c-5.94-9.33-17.53-24.6-20.92-35.76
		c-3.54-11.31,0.99-18.66,2.83-23.04c1.84-4.24,0.99-5.52-2.41-9.19c-3.53-3.67-9.61-9.89-15.97-15.12
		c-6.36-5.37-13-9.9-12.16-15.41C805.57,155.15,810.8,150.07,817.3,146.39L817.3,146.39z"/>
	<path class="st2" d="M167.32,237C225.14,160.53,306,102.43,399.44,73.02c-1.55,7.35-5.09,17.25-5.94,24.46
		c-0.99,10.04,3.53,14.99,9.33,21.77c5.65,6.79,12.72,15.27,15.97,22.48c3.25,7.21,2.82,13,3.67,21.34
		c0.85,8.34,2.83,19.51-0.85,25.44c-3.68,5.94-13.14,6.79-18.8,7.07c-5.8,0.43-7.78,0.43-8.91,2.69c-0.99,2.26-0.99,6.79,1.84,12.3
		c2.97,5.51,8.63,12.16,5.65,17.53c-3.11,5.23-14.98,9.33-19.08,14.7c-4.1,5.37-0.42,11.88,3.67,17.39
		c4.1,5.51,8.63,10.04,11.31,16.4c2.54,6.36,3.39,14.56,0.56,24.46c-2.83,9.75-9.47,21.2-15.83,31.67
		c-6.36,10.46-12.44,19.93-15.13,30.81c-2.69,10.88-1.84,23.19-2.83,36.05c-0.99,12.87-3.96,26.43-11.17,36.05
		c-7.07,9.61-18.52,15.41-27.85,17.67c-9.19,2.26-16.12,0.99-16.96,3.82c-0.85,2.97,4.52,9.89,9.61,20.78
		c5.09,10.88,10.04,25.59,8.77,38.73c-1.13,13.01-8.48,24.6-17.95,31.95c-9.47,7.35-20.92,10.6-26.72,18.38
		c-5.65,7.77-5.65,20.07-1.56,31.67c4.1,11.45,12.3,22.05,19.09,28.69c6.64,6.51,12.01,8.91,25.3,14.28
		c13.43,5.37,34.63,13.57,50.04,19.23c15.41,5.79,24.88,9.04,29.55,13.29c4.67,4.38,4.67,9.76,8.63,22.62
		c3.81,12.86,11.59,33.36,23.89,48.21c12.3,14.7,29.12,23.75,32.79,28.27c3.68,4.53-5.65,4.53-18.66,2.97
		c-12.87-1.42-29.26-4.24-43.82-16.4c-14.56-12.02-27.29-33.37-34.21-46.65c-6.92-13.29-8.2-18.66-11.31-20.07
		c-2.97-1.41-7.92,0.99-12.01,0.56c-4.1-0.42-7.35-3.68-9.05-7.78c-1.69-4.1-1.69-9.04-4.52-13.85c-2.83-4.95-8.63-9.9-15.69-12.16
		c-7.21-2.27-15.83-1.84-24.32-4.1c-8.34-2.26-16.54-7.21-22.62-13.57c-6.22-6.36-10.32-14.13-19.51-22.47
		c-9.18-8.48-23.6-17.39-27.42-29.97c-3.96-12.44,2.55-28.41,0-43.96c-2.68-15.69-14.56-30.82-24.6-43.54
		c-10.03-12.72-18.24-22.9-19.37-35.77c-0.99-13.01,5.23-28.55,11.17-40.71c5.94-12.02,11.59-20.64,14.7-26.01
		c3.11-5.23,3.54-7.35-2.12-7.77c-5.51-0.42-16.96,0.85-18.52-5.65c-1.7-6.65,6.5-20.92,10.74-32.37
		c4.38-11.6,4.81-20.07-1.84-29.97c-6.5-9.9-20.07-20.92-23.04-27.85c-3.11-6.93,4.24-9.89,1.42-26.72
		C173.54,261.32,169.73,250.01,167.32,237L167.32,237z"/>
	<path class="st3" d="M161.1,231.07c57.82-76.48,138.53-134.58,232.12-164.12c-1.55,7.35-5.23,17.25-5.94,24.6
		c-0.99,10.04,3.53,14.84,9.18,21.63c5.79,6.79,12.73,15.41,15.97,22.62c3.39,7.07,2.97,12.87,3.82,21.21
		c0.71,8.48,2.83,19.51-0.85,25.44c-3.68,5.94-13.15,6.79-18.94,7.21c-5.65,0.42-7.77,0.42-8.76,2.69
		c-0.99,2.26-0.99,6.78,1.84,12.3c2.83,5.51,8.62,12.01,5.51,17.39c-3.11,5.37-14.99,9.47-19.08,14.7
		c-4.1,5.37-0.28,12.02,3.81,17.53c3.96,5.51,8.48,10.03,11.17,16.4c2.69,6.36,3.54,14.56,0.71,24.31
		c-2.97,9.9-9.47,21.35-15.84,31.81c-6.36,10.46-12.44,19.79-15.12,30.67c-2.69,10.88-1.84,23.19-2.97,36.05
		c-0.99,13.01-3.82,26.44-11.03,36.19c-7.21,9.61-18.66,15.27-27.85,17.53c-9.19,2.26-16.26,1.13-16.96,3.96
		c-0.85,2.83,4.52,9.76,9.61,20.64c5.09,10.88,10.04,25.59,8.77,38.73c-1.27,13.15-8.63,24.6-17.95,31.95
		c-9.47,7.49-20.92,10.74-26.72,18.52c-5.8,7.77-5.8,20.07-1.7,31.52c4.1,11.45,12.3,22.19,19.09,28.69
		c6.78,6.5,12.16,9.05,25.45,14.42c13.29,5.23,34.63,13.43,50.04,19.23c15.27,5.65,24.74,9.04,29.55,13.29
		c4.67,4.24,4.67,9.61,8.48,22.62c3.96,12.87,11.73,33.37,24.03,48.07c12.3,14.84,29.12,23.75,32.79,28.27
		c3.68,4.53-5.79,4.53-18.66,3.11c-12.87-1.42-29.26-4.24-43.83-16.4c-14.56-12.16-27.28-33.36-34.21-46.79
		c-7.07-13.29-8.2-18.52-11.31-20.07c-3.11-1.42-8.06,1.13-12.16,0.71c-4.1-0.42-7.35-3.68-8.9-7.78c-1.7-4.1-1.7-9.04-4.52-13.99
		c-2.97-4.95-8.63-9.76-15.83-12.02c-7.21-2.26-15.69-1.84-24.17-4.1c-8.34-2.27-16.54-7.21-22.76-13.57
		c-6.08-6.36-10.18-14.14-19.51-22.62c-9.18-8.34-23.46-17.39-27.42-29.83c-3.82-12.58,2.68-28.55,0-44.1
		c-2.68-15.55-14.56-30.68-24.6-43.4c-10.04-12.73-18.24-23.04-19.22-35.91c-0.99-12.87,5.09-28.42,11.03-40.57
		c5.94-12.15,11.73-20.64,14.84-26.01c2.97-5.37,3.39-7.35-2.12-7.77c-5.51-0.42-16.96,0.85-18.66-5.79
		c-1.56-6.51,6.64-20.92,10.88-32.37c4.24-11.45,4.66-20.08-1.84-29.97c-6.5-9.75-20.07-20.78-23.18-27.85
		c-3.11-6.93,4.38-9.75,1.41-26.58C167.32,255.38,163.51,244.07,161.1,231.07L161.1,231.07z"/>
	<path class="st4" d="M147.53,224.84c57.82-76.47,138.53-134.57,232.12-163.98c-1.55,7.35-5.09,17.25-5.94,24.46
		c-0.99,10.04,3.54,14.98,9.33,21.77c5.65,6.78,12.72,15.27,15.97,22.48c3.25,7.21,2.83,13,3.68,21.34
		c0.85,8.34,2.83,19.51-0.85,25.45c-3.68,5.94-13.15,6.78-18.8,7.07c-5.79,0.42-7.78,0.42-8.91,2.69c-0.99,2.26-0.99,6.78,1.84,12.3
		c2.97,5.51,8.62,12.16,5.65,17.53c-3.11,5.23-14.99,9.33-19.09,14.7c-4.1,5.37-0.42,11.87,3.68,17.39
		c4.1,5.51,8.62,10.04,11.31,16.4c2.54,6.36,3.39,14.56,0.56,24.46c-2.83,9.75-9.47,21.2-15.83,31.67
		c-6.36,10.46-12.44,19.93-15.13,30.81c-2.68,10.89-1.84,23.19-2.83,36.05c-1.13,12.86-3.96,26.44-11.17,36.05
		c-7.07,9.61-18.66,15.41-27.85,17.67c-9.18,2.27-16.12,0.99-16.96,3.82c-0.85,2.97,4.52,9.9,9.61,20.78
		c5.09,10.88,10.04,25.59,8.76,38.73c-1.13,13.15-8.48,24.6-17.95,31.95c-9.47,7.35-20.92,10.6-26.72,18.38
		c-5.65,7.77-5.65,20.07-1.55,31.67c4.1,11.45,12.3,22.05,19.08,28.69c6.65,6.5,12.02,8.91,25.3,14.28
		c13.43,5.37,34.64,13.57,50.04,19.22c15.4,5.8,24.88,9.05,29.54,13.43c4.67,4.24,4.67,9.61,8.63,22.47
		c3.82,12.87,11.59,33.37,23.89,48.2c12.3,14.7,29.12,23.75,32.8,28.28c3.67,4.53-5.66,4.53-18.66,2.97
		c-12.87-1.41-29.26-4.24-43.82-16.26c-14.56-12.16-27.28-33.5-34.21-46.79c-6.93-13.29-8.2-18.66-11.31-20.07
		c-2.97-1.42-7.91,0.99-12.01,0.56c-4.1-0.42-7.35-3.68-9.05-7.78c-1.7-4.1-1.7-9.05-4.52-13.85c-2.83-4.95-8.62-9.9-15.83-12.16
		c-7.07-2.26-15.69-1.84-24.17-4.1c-8.34-2.27-16.54-7.21-22.76-13.57c-6.08-6.36-10.18-14.14-19.36-22.47
		c-9.19-8.48-23.61-17.39-27.57-29.97c-3.82-12.44,2.69-28.41,0-43.96c-2.54-15.69-14.42-30.82-24.46-43.54
		c-10.18-12.72-18.24-22.9-19.37-35.76c-0.99-13.01,5.09-28.56,11.17-40.71c5.94-12.01,11.59-20.64,14.7-26.01
		c3.11-5.23,3.54-7.35-2.12-7.77c-5.51-0.43-16.96,0.85-18.66-5.66c-1.55-6.64,6.64-20.92,10.88-32.37
		c4.38-11.59,4.81-20.07-1.84-29.97c-6.5-9.89-20.07-20.92-23.18-27.85c-2.97-6.93,4.38-9.9,1.56-26.72
		C153.75,249.16,149.94,237.85,147.53,224.84L147.53,224.84z"/>
	<path class="st4" d="M839.92,845c-17.67,16.68-36.61,32.09-56.83,45.8c-7.78-4.38-7.49-11.73-6.65-18.94
		c0.99-8.2,2.69-16.4,0.15-24.46c-2.41-7.91-8.91-15.69-11.88-24.6c-2.83-8.76-1.98-18.66-2.4-27.42
		c-0.42-8.76-2.12-16.54-5.94-25.87c-3.96-9.19-10.04-19.79-6.37-20.92c3.68-0.99,17.25,7.63,23.75,13.86
		c6.5,6.08,6.22,9.75,6.78,14.14c0.57,4.24,2.26,9.19,8.63,11.17c6.36,2.12,17.39,1.27,25.73,5.23
		c8.48,3.81,14.13,12.44,17.67,22.19C835.82,824.64,836.95,835.1,839.92,845L839.92,845z"/>
	<path class="st4" d="M532.6,747.32c-3.96,4.38-8.91,7.35-15.41,6.5c-6.5-0.71-14.7-4.95-19.79-12.3c-4.95-7.35-6.79-17.81-9.9-24.6
		c-3.11-6.78-7.35-9.9-11.17-12.72c-3.81-2.83-7.07-5.51-6.92-10.32c0.28-4.81,3.96-11.87,3.96-19.23c0-7.35-3.68-15.12-0.99-17.24
		c2.54-2.26,11.59,1.27,17.39,4.81c5.65,3.68,8.2,7.35,13.43,8.34c5.23,0.99,13.14-0.56,21.35-2.26c8.2-1.55,16.68-3.25,23.18-3.96
		c6.64-0.71,11.31-0.56,11.45,4.38c0.28,4.95-4.1,14.56-4.81,22.2c-0.71,7.49,2.12,13,2.69,16.68c0.56,3.53-1.27,5.23-2.41,7.35
		c-1.13,2.12-1.55,4.81-3.53,7.63c-1.98,2.69-5.37,5.65-8.63,10.04C539.38,737,536.42,742.93,532.6,747.32L532.6,747.32z"/>
	<path class="st4" d="M607.52,685.12c0.85,10.46,1.84,21.06,3.54,33.93c1.69,12.86,3.96,27.71,6.5,39.3
		c2.69,11.59,5.8,19.79,7.21,27c1.41,7.21,1.27,13.29,3.67,13.86c2.55,0.42,7.64-4.67,7.92-11.31c0.28-6.64-4.24-14.84-5.65-20.92
		c-1.41-6.22,0.28-10.32,4.24-9.19c3.96,1.13,10.32,7.49,14.99,11.59c4.52,4.1,7.49,5.94,13.57,8.2c6.22,2.26,15.55,4.95,23.18,4.95
		c7.64,0.14,13.29-2.27,11.88-6.64c-1.42-4.52-10.04-10.88-18.94-17.39c-8.91-6.5-18.09-13.29-22.76-18.52
		c-4.67-5.23-4.67-8.91,0.28-13.29c4.95-4.53,14.84-9.62,24.46-13.29c9.61-3.68,19.08-5.94,20.21-9.05
		c1.13-3.25-6.08-7.35-12.3-7.78c-6.36-0.57-11.59,2.55-19.65,4.38c-7.91,1.84-18.66,2.4-21.77-1.13
		c-3.25-3.68,1.13-11.45,3.11-17.81c1.84-6.5,1.41-11.59,10.04-16.4c8.62-4.67,26.29-8.91,36.33-12.58
		c10.03-3.53,12.44-6.36,4.52-7.91c-8.05-1.42-26.43-1.42-38.03,4.1c-11.59,5.37-16.26,16.26-22.05,22.05
		c-5.79,5.94-12.44,6.64-17.53,7.07c-4.95,0.42-8.34,0.42-11.17-3.68c-2.83-4.1-5.38-12.3-6.22-11.31
		C606.11,664.48,606.81,674.65,607.52,685.12L607.52,685.12z"/>
	<path class="st4" d="M334.56,715.79c6.36,4.38,13.57,7.63,19.36,14.84c5.65,7.21,10.04,18.23,13.01,26.72
		c2.97,8.48,4.52,14.42,7.63,19.79c3.11,5.37,7.64,10.04,11.31,13.71c3.81,3.68,6.92,6.37,10.03,9.47c3.11,3.11,6.08,6.5,5.23,9.33
		c-0.99,2.97-5.94,5.23-10.32,5.94c-4.52,0.71-8.62-0.14-16.11-5.94c-7.49-5.94-18.38-16.68-26.01-23.46
		c-7.49-6.79-11.87-9.47-13.99-16.97c-2.12-7.49-2.12-19.79-4.1-29.82c-1.98-10.04-5.79-17.81-8.34-23.89
		c-2.54-6.22-3.81-10.74-1.69-10.18C322.68,705.76,328.19,711.41,334.56,715.79L334.56,715.79z"/>
	<path class="st4" d="M465.17,813.05c-7.64,0.42-18.52,2.26-23.89,4.52c-5.51,2.13-5.51,4.81,4.24,6.08
		c9.75,1.27,29.26,0.99,43.26,2.4c13.86,1.55,22.33,4.52,27.56,5.09c5.09,0.56,7.21-1.55,12.16-1.84
		c4.94-0.28,12.72,1.13,19.08,2.12c6.5,0.99,11.59,1.7,17.1,0.28c5.51-1.55,11.59-4.95,3.68-9.9c-7.78-4.95-29.26-11.31-43.11-14.27
		c-13.86-2.97-19.93-2.55-26.01-0.71c-6.08,1.84-12.01,5.09-17.1,6.22C477.05,814.04,472.66,812.77,465.17,813.05L465.17,813.05z"/>
	<path class="st4" d="M605.97,827.61c-2.68,1.98-6.78,4.1-4.38,5.8c2.26,1.7,11.17,3.11,17.39,4.38c6.22,1.28,9.89,2.26,12.3,1.28
		c2.26-0.85,3.39-3.68-0.14-7.07c-3.54-3.25-11.45-6.93-16.12-7.77C610.21,823.51,608.8,825.49,605.97,827.61L605.97,827.61z"/>
	<path class="st4" d="M673.96,829.59c-4.52,2.68-8.2,6.22-9.9,8.76c-1.84,2.69-1.55,4.52,2.83,5.65c4.38,1.13,13,1.56,16.4,0.14
		c3.39-1.41,1.55-4.66,3.39-6.5c1.84-1.7,7.35-1.84,8.34-4.1c1.13-2.13-2.4-6.22-6.78-7.36
		C683.86,825.07,678.49,826.9,673.96,829.59L673.96,829.59z"/>
	<path class="st3" d="M833.56,336.94c1.55,4.38,1.98,10.04,4.38,16.12c2.4,6.08,6.78,12.44,8.77,17.1c1.98,4.67,1.7,7.49,1.13,11.87
		c-0.42,4.24-1.27,9.75-2.4,13.86c-1.13,4.1-2.83,6.5-4.95,8.34c-2.26,1.7-5.09,2.83-6.65-0.99c-1.69-3.82-2.12-12.58-5.09-18.8
		c-2.97-6.36-8.2-10.04-8.9-15.27c-0.57-5.37,3.53-12.3,4.52-18.09c0.99-5.8-1.27-10.46-1.27-14.42c-0.14-3.81,1.84-7.07,4.1-7.07
		C829.46,329.59,832.01,332.56,833.56,336.94L833.56,336.94z"/>
	<path class="st3" d="M788.19,201.1c3.95,0.85,13.14,6.36,16.68,13.43c3.39,7.07,1.13,15.69,3.39,22.76
		c2.12,6.93,8.62,12.3,12.72,17.95c4.1,5.8,5.79,11.87,6.78,16.4c0.99,4.52,1.41,7.35-3.82,2.54c-5.23-4.95-16.12-17.67-27.14-25.16
		c-11.03-7.49-22.33-9.75-23.89-15.83c-1.7-5.94,6.22-15.83,9.61-22.62C785.78,203.78,784.37,200.11,788.19,201.1L788.19,201.1z"/>
	<path class="st4" d="M836.67,334.4c1.55,4.38,1.98,10.04,4.38,15.97c2.4,6.08,6.78,12.58,8.76,17.25c1.98,4.67,1.7,7.49,1.13,11.73
		c-0.43,4.24-1.13,9.89-2.41,14c-1.13,3.96-2.83,6.5-4.95,8.34c-2.26,1.7-4.95,2.82-6.64-0.99c-1.7-3.82-2.12-12.72-5.09-18.95
		c-2.83-6.22-8.2-9.89-8.91-15.27c-0.56-5.23,3.54-12.3,4.52-18.09c0.99-5.79-1.13-10.32-1.27-14.28c-0.14-3.82,1.84-7.07,4.1-7.07
		C832.57,326.91,835.11,330.02,836.67,334.4L836.67,334.4z"/>
	<path class="st4" d="M791.29,198.41c3.96,0.99,13.15,6.5,16.68,13.57c3.54,7.07,1.28,15.69,3.39,22.62
		c2.12,7.07,8.63,12.3,12.72,18.09c4.1,5.8,5.8,11.88,6.79,16.4c0.99,4.52,1.41,7.35-3.82,2.4c-5.23-4.95-15.97-17.53-27.14-25.02
		c-11.03-7.49-22.33-9.75-23.89-15.83c-1.69-6.08,6.37-15.83,9.61-22.62C788.89,201.24,787.47,197.56,791.29,198.41L791.29,198.41z"
		/>
	<path class="st3" d="M839.92,845c-17.67,16.68-36.61,32.09-56.83,45.8c-7.78-4.38-7.49-11.73-6.65-18.94
		c0.99-8.2,2.69-16.4,0.15-24.46c-2.41-7.91-8.91-15.69-11.88-24.6c-2.83-8.76-1.98-18.66-2.4-27.42
		c-0.42-8.76-2.12-16.54-5.94-25.87c-3.96-9.19-10.04-19.79-6.37-20.92c3.68-0.99,17.25,7.63,23.75,13.86
		c6.5,6.08,6.22,9.75,6.78,14.14c0.57,4.24,2.26,9.19,8.63,11.17c6.36,2.12,17.39,1.27,25.73,5.23
		c8.48,3.81,14.13,12.44,17.67,22.19C835.82,824.64,836.95,835.1,839.92,845L839.92,845z"/>
	<path class="st3" d="M532.6,747.32c-3.96,4.38-8.91,7.35-15.41,6.5c-6.5-0.71-14.7-4.95-19.79-12.3c-4.95-7.35-6.79-17.81-9.9-24.6
		c-3.11-6.78-7.35-9.9-11.17-12.72c-3.81-2.83-7.07-5.51-6.92-10.32c0.28-4.81,3.96-11.87,3.96-19.23c0-7.35-3.68-15.12-0.99-17.24
		c2.54-2.26,11.59,1.27,17.39,4.81c5.65,3.68,8.2,7.35,13.43,8.34c5.23,0.99,13.14-0.56,21.35-2.26c8.2-1.55,16.68-3.25,23.18-3.96
		c6.64-0.71,11.31-0.56,11.45,4.38c0.28,4.95-4.1,14.56-4.81,22.2c-0.71,7.49,2.12,13,2.69,16.68c0.56,3.53-1.27,5.23-2.41,7.35
		c-1.13,2.12-1.55,4.81-3.53,7.63c-1.98,2.69-5.37,5.65-8.63,10.04C539.38,737,536.42,742.93,532.6,747.32L532.6,747.32z"/>
	<path class="st3" d="M607.52,685.12c0.85,10.46,1.84,21.06,3.54,33.93c1.69,12.86,3.96,27.71,6.5,39.3
		c2.69,11.59,5.8,19.79,7.21,27c1.41,7.21,1.27,13.29,3.67,13.86c2.55,0.42,7.64-4.67,7.92-11.31c0.28-6.64-4.24-14.84-5.65-20.92
		c-1.41-6.22,0.28-10.32,4.24-9.19c3.96,1.13,10.32,7.49,14.99,11.59c4.52,4.1,7.49,5.94,13.57,8.2c6.22,2.26,15.55,4.95,23.18,4.95
		c7.64,0.14,13.29-2.27,11.88-6.64c-1.42-4.52-10.04-10.88-18.94-17.39c-8.91-6.5-18.09-13.29-22.76-18.52
		c-4.67-5.23-4.67-8.91,0.28-13.29c4.95-4.53,14.84-9.62,24.46-13.29c9.61-3.68,19.08-5.94,20.21-9.05
		c1.13-3.25-6.08-7.35-12.3-7.78c-6.36-0.57-11.59,2.55-19.65,4.38c-7.91,1.84-18.66,2.4-21.77-1.13
		c-3.25-3.68,1.13-11.45,3.11-17.81c1.84-6.5,1.41-11.59,10.04-16.4c8.62-4.67,26.29-8.91,36.33-12.58
		c10.03-3.53,12.44-6.36,4.52-7.91c-8.05-1.42-26.43-1.42-38.03,4.1c-11.59,5.37-16.26,16.26-22.05,22.05
		c-5.79,5.94-12.44,6.64-17.53,7.07c-4.95,0.42-8.34,0.42-11.17-3.68c-2.83-4.1-5.38-12.3-6.22-11.31
		C606.11,664.48,606.81,674.65,607.52,685.12L607.52,685.12z"/>
	<path class="st3" d="M334.56,715.79c6.36,4.38,13.57,7.63,19.36,14.84c5.65,7.21,10.04,18.23,13.01,26.72
		c2.97,8.48,4.52,14.42,7.63,19.79c3.11,5.37,7.64,10.04,11.31,13.71c3.81,3.68,6.92,6.37,10.03,9.47c3.11,3.11,6.08,6.5,5.23,9.33
		c-0.99,2.97-5.94,5.23-10.32,5.94c-4.52,0.71-8.62-0.14-16.11-5.94c-7.49-5.94-18.38-16.68-26.01-23.46
		c-7.49-6.79-11.87-9.47-13.99-16.97c-2.12-7.49-2.12-19.79-4.1-29.82c-1.98-10.04-5.79-17.81-8.34-23.89
		c-2.54-6.22-3.81-10.74-1.69-10.18C322.68,705.76,328.19,711.41,334.56,715.79L334.56,715.79z"/>
	<path class="st3" d="M465.17,813.05c-7.64,0.42-18.52,2.26-23.89,4.52c-5.51,2.13-5.51,4.81,4.24,6.08
		c9.75,1.27,29.26,0.99,43.26,2.4c13.86,1.55,22.33,4.52,27.56,5.09c5.09,0.56,7.21-1.55,12.16-1.84
		c4.94-0.28,12.72,1.13,19.08,2.12c6.5,0.99,11.59,1.7,17.1,0.28c5.51-1.55,11.59-4.95,3.68-9.9c-7.78-4.95-29.26-11.31-43.11-14.27
		c-13.86-2.97-19.93-2.55-26.01-0.71c-6.08,1.84-12.01,5.09-17.1,6.22C477.05,814.04,472.66,812.77,465.17,813.05L465.17,813.05z"/>
	<path class="st3" d="M605.97,827.61c-2.68,1.98-6.78,4.1-4.38,5.8c2.26,1.7,11.17,3.11,17.39,4.38c6.22,1.28,9.89,2.26,12.3,1.28
		c2.26-0.85,3.39-3.68-0.14-7.07c-3.54-3.25-11.45-6.93-16.12-7.77C610.21,823.51,608.8,825.49,605.97,827.61L605.97,827.61z"/>
	<path class="st3" d="M673.96,829.59c-4.52,2.68-8.2,6.22-9.9,8.76c-1.84,2.69-1.55,4.52,2.83,5.65c4.38,1.13,13,1.56,16.4,0.14
		c3.39-1.41,1.55-4.66,3.39-6.5c1.84-1.7,7.35-1.84,8.34-4.1c1.13-2.13-2.4-6.22-6.78-7.36
		C683.86,825.07,678.49,826.9,673.96,829.59L673.96,829.59z"/>
	<path class="st4" d="M845.72,831.99c-17.81,16.68-36.76,32.09-56.83,45.8c-7.92-4.38-7.5-11.59-6.65-18.95
		c0.99-8.2,2.55-16.4,0.15-24.45c-2.41-7.92-9.05-15.69-11.88-24.6c-2.82-8.77-2.12-18.52-2.54-27.42
		c-0.28-8.77-1.98-16.54-5.94-25.73c-3.82-9.33-10.04-19.93-6.22-20.92c3.68-1.13,17.11,7.49,23.75,13.71
		c6.5,6.08,6.08,9.75,6.78,14.13c0.56,4.24,2.12,9.19,8.48,11.31c6.36,1.98,17.53,1.13,25.87,5.09c8.34,3.82,14.13,12.44,17.53,22.2
		C841.48,811.63,842.61,822.1,845.72,831.99L845.72,831.99z"/>
	<path class="st4" d="M538.25,734.31c-3.81,4.38-8.76,7.35-15.27,6.64c-6.64-0.71-14.84-5.09-19.79-12.44
		c-5.09-7.35-6.93-17.81-10.04-24.6c-2.97-6.79-7.35-9.9-11.17-12.72c-3.68-2.83-7.07-5.51-6.79-10.32
		c0.14-4.81,3.82-11.74,3.82-19.23c0-7.35-3.68-15.13-0.99-17.24c2.68-2.13,11.73,1.27,17.39,4.95c5.8,3.53,8.2,7.21,13.43,8.2
		c5.23,1.13,13.29-0.56,21.49-2.26c8.2-1.56,16.54-3.25,23.18-3.96c6.5-0.7,11.17-0.42,11.45,4.38c0.14,4.95-4.1,14.56-4.8,22.19
		c-0.71,7.63,2.12,13.14,2.68,16.68c0.42,3.54-1.41,5.23-2.55,7.35c-1.13,2.12-1.55,4.8-3.39,7.63c-1.98,2.68-5.51,5.65-8.63,10.04
		C545.04,723.99,542.21,729.93,538.25,734.31L538.25,734.31z"/>
	<path class="st4" d="M613.32,672.11c0.85,10.46,1.84,21.2,3.53,33.92c1.55,12.87,3.82,27.85,6.5,39.44
		c2.69,11.59,5.79,19.64,7.21,26.86c1.41,7.21,1.27,13.29,3.68,13.86c2.4,0.56,7.63-4.67,7.91-11.31
		c0.28-6.64-4.24-14.84-5.65-20.92c-1.41-6.22,0.14-10.32,4.24-9.19c3.96,1.13,10.32,7.49,14.84,11.59c4.66,4.1,7.5,5.94,13.71,8.2
		c6.08,2.27,15.55,4.95,23.18,5.09c7.5,0,13.29-2.4,11.88-6.79c-1.42-4.38-10.04-10.74-18.94-17.38
		c-8.91-6.5-18.23-13.29-22.76-18.52c-4.67-5.23-4.67-8.9,0.28-13.29c4.95-4.38,14.7-9.61,24.31-13.29
		c9.75-3.67,19.09-5.94,20.22-9.04c1.13-3.25-6.08-7.35-12.3-7.78c-6.22-0.56-11.59,2.55-19.51,4.38
		c-8.05,1.84-18.66,2.4-21.91-1.13c-3.11-3.54,1.13-11.31,3.11-17.81c1.98-6.5,1.55-11.59,10.18-16.26
		c8.62-4.81,26.15-9.05,36.18-12.72c10.18-3.54,12.58-6.36,4.52-7.78c-7.91-1.55-26.43-1.55-38.03,3.96
		c-11.45,5.37-16.26,16.26-21.91,22.05c-5.8,5.94-12.58,6.79-17.53,7.07c-5.09,0.42-8.34,0.42-11.17-3.68
		c-2.97-4.1-5.37-12.3-6.37-11.17C611.9,651.47,612.47,661.65,613.32,672.11L613.32,672.11z"/>
	<path class="st4" d="M340.35,702.79c6.36,4.38,13.57,7.63,19.22,14.84c5.8,7.21,10.04,18.23,13.01,26.72
		c2.97,8.48,4.67,14.42,7.77,19.79c2.97,5.37,7.5,10.04,11.31,13.71c3.81,3.68,6.92,6.36,9.89,9.47c3.11,3.11,6.22,6.5,5.23,9.47
		c-0.85,2.83-5.79,5.09-10.32,5.8c-4.52,0.71-8.62-0.14-16.12-5.94c-7.49-5.8-18.23-16.69-25.86-23.47
		c-7.64-6.78-11.88-9.47-14-16.96c-2.26-7.49-2.26-19.79-4.1-29.83c-1.98-10.04-5.94-17.81-8.48-23.89
		c-2.54-6.22-3.81-10.74-1.55-10.18C328.48,692.89,333.99,698.41,340.35,702.79L340.35,702.79z"/>
	<path class="st4" d="M470.82,800.19c-7.49,0.28-18.37,2.12-23.89,4.38c-5.37,2.26-5.37,4.95,4.38,6.08
		c9.75,1.27,29.26,0.99,43.11,2.55c14,1.41,22.33,4.52,27.56,4.95c5.23,0.56,7.35-1.56,12.16-1.84c4.95-0.28,12.73,1.13,19.23,2.12
		c6.5,1.13,11.59,1.7,17.1,0.28c5.51-1.42,11.45-4.95,3.68-9.89c-7.77-4.95-29.26-11.31-43.11-14.28
		c-13.86-2.97-19.93-2.54-26.01-0.71c-6.08,1.84-12.01,5.23-17.1,6.22C482.7,801.03,478.46,799.76,470.82,800.19L470.82,800.19z"/>
	<path class="st4" d="M611.76,814.61c-2.68,1.98-6.78,4.1-4.52,5.79c2.41,1.7,11.17,3.25,17.39,4.38c6.36,1.27,10.03,2.26,12.3,1.41
		c2.4-0.99,3.39-3.82,0-7.07c-3.54-3.39-11.59-7.07-16.26-7.78C616,810.5,614.59,812.48,611.76,814.61L611.76,814.61z"/>
	<path class="st4" d="M679.76,816.58c-4.52,2.69-8.2,6.22-10.04,8.91c-1.69,2.54-1.55,4.52,2.97,5.65c4.38,0.99,13,1.41,16.4,0
		c3.39-1.41,1.55-4.67,3.39-6.36c1.84-1.84,7.35-1.98,8.34-4.1c0.99-2.26-2.4-6.36-6.92-7.49
		C689.51,812.06,684.28,813.9,679.76,816.58L679.76,816.58z"/>
	<path class="st5" d="M496.41,295.53c31.81,0,57.53,35.06,57.53,78.17c0,43.26-25.73,78.31-57.53,78.31
		c-31.81,0-57.54-35.05-57.54-78.31C438.88,330.58,464.61,295.53,496.41,295.53L496.41,295.53z"/>
	<path class="st5" d="M688.24,313.2c31.81,0,57.54,35.06,57.54,78.32c0,43.11-25.73,78.17-57.54,78.17
		c-31.81,0-57.53-35.06-57.53-78.17C630.71,348.26,656.44,313.2,688.24,313.2L688.24,313.2z"/>
	<path class="st6" d="M481.71,322.1c15.41,0,27.99,16.68,27.99,37.32c0,20.5-12.58,37.18-27.99,37.18
		c-15.55,0-28.13-16.68-28.13-37.18C453.58,338.78,466.16,322.1,481.71,322.1L481.71,322.1z"/>
	<path class="st7" d="M479.17,327.05c12.16,0,22.05,13.15,22.05,29.4c0,16.26-9.9,29.41-22.05,29.41
		c-12.3,0-22.19-13.15-22.19-29.41C456.97,340.2,466.87,327.05,479.17,327.05L479.17,327.05z"/>
	<path class="st6" d="M666.9,340.48c15.41,0,27.99,16.68,27.99,37.32c0,20.64-12.58,37.32-27.99,37.32
		c-15.55,0-28.13-16.68-28.13-37.32C638.76,357.16,651.35,340.48,666.9,340.48L666.9,340.48z"/>
	<path class="st7" d="M664.35,345.43c12.16,0,22.05,13.15,22.05,29.41c0,16.26-9.9,29.4-22.05,29.4c-12.3,0-22.19-13.14-22.19-29.4
		C642.16,358.58,652.05,345.43,664.35,345.43L664.35,345.43z"/>
	<path class="st8" d="M440.58,302.03c2.82-13,9.47-33.93,20.78-49.05c11.17-15.13,26.86-24.46,41.13-27.42
		c14.42-2.97,27.29,0.57,38.74,7.35c11.59,6.78,21.77,16.96,27.85,35.34c6.08,18.52,8.06,45.24,7.92,60.5
		c-0.28,15.41-2.69,19.22-4.24,11.02c-1.42-8.2-1.84-28.55-7.35-46.93c-5.38-18.38-15.69-34.63-26.58-43.4
		c-11.03-8.91-22.62-10.32-33.5-9.47c-10.88,0.85-21.35,4.1-28.69,11.17c-7.35,7.07-11.74,18.24-16.68,29.41
		c-4.95,11.17-10.33,22.48-13.86,29.97c-3.68,7.49-5.37,11.17-6.5,10.46C438.31,320.26,437.61,315.03,440.58,302.03L440.58,302.03z"
		/>
	<path class="st8" d="M624.21,330.87c2.97-13.14,9.61-33.92,20.78-49.05c11.17-15.13,27-24.46,41.27-27.42
		c14.28-2.97,27.14,0.42,38.74,7.21c11.45,6.93,21.63,16.96,27.71,35.48c6.08,18.38,8.2,45.09,7.91,60.5
		c-0.14,15.27-2.68,19.23-4.1,11.03c-1.42-8.34-1.98-28.69-7.35-47.07c-5.37-18.24-15.83-34.49-26.72-43.4
		c-10.88-8.77-22.47-10.32-33.5-9.47c-10.88,0.99-21.2,4.1-28.55,11.31c-7.35,7.07-11.88,18.09-16.83,29.26
		c-4.81,11.31-10.32,22.62-13.85,30.11c-3.54,7.49-5.23,11.17-6.51,10.46C621.94,348.96,621.23,343.87,624.21,330.87L624.21,330.87z
		"/>
	<path class="st8" d="M509.14,550.68c-11.17-0.71,5.09-15.97,33.22-25.3c27.99-9.33,67.85-12.86,103.48-3.96
		c35.62,8.77,67.14,29.97,83.54,47.64c16.54,17.81,17.96,31.95,13.29,31.24c-4.67-0.71-15.41-16.4-40.71-31.66
		c-25.45-15.27-65.17-29.96-104.32-30.53C558.47,537.68,520.16,551.39,509.14,550.68L509.14,550.68z"/>
</g>
</svg>
